# xmcd
#
# Track frame offsets:
#	150
#	8770
#	19726
#	33860
#	45457
#	55042
#	64996
#	76219
#	86164
#	95113
#	104453
#	116087
#	125766
#	135309
#	146358
#	157691
#	167472
#	177927
#	190067
#	202955
#	214118
#	224843
#	237143
#	245993
#	256681
#
# Disc length: 3546 seconds
#
# Revision: 0
# Processed by: cddbd v1.5.2PL0 Copyright (c) Steve Scherf et al.
# Submitted via: EasyCDDAExtractor 15.3.0.1
#
DISCID=570dd819
DTITLE=Webb Pierce - Webb With A Beat/Fallen Angel
DYEAR=1900
DGENRE=
TTITLE0=I Ain't Never
TTITLE1=It's My Way
TTITLE2=Gotta Travel On
TTITLE3=I've Got My Fingers Crossed
TTITLE4=I'll Never Have To Be Alone
TTITLE5=Whirlpool Of Love
TTITLE6=No Love Have I
TTITLE7=Is It Wrong (For Loving You)
TTITLE8=I'm Tired
TTITLE9=Poison Love
TTITLE10=Public Enemy Number One
TTITLE11=In The Jailhouse Now
TTITLE12=Fallen Angel
TTITLE13=Rose And A Thorn
TTITLE14=Let Forgiveness In
TTITLE15=So Used To Loving You
TTITLE16=There's More Pretty Girls Than One
TTITLE17=Forgive Me
TTITLE18=Truck Driver's Blues
TTITLE19=Is My Ring On Your Finger
TTITLE20=My Rough And Rowdy Ways
TTITLE21=Walk On The Wild Side
TTITLE22=No One But Me
TTITLE23=Last Night
TTITLE24=Drifting Texas Sand
EXTD=
EXTT0=
EXTT1=
EXTT2=
EXTT3=
EXTT4=
EXTT5=
EXTT6=
EXTT7=
EXTT8=
EXTT9=
EXTT10=
EXTT11=
EXTT12=
EXTT13=
EXTT14=
EXTT15=
EXTT16=
EXTT17=
EXTT18=
EXTT19=
EXTT20=
EXTT21=
EXTT22=
EXTT23=
EXTT24=
PLAYORDER=
